<?xml version="1.0" encoding="utf-8"?>
<svg width="456" height="456" viewBox="0 0 456 456" version="1.1" xmlns="http://www.w3.org/2000/svg" style="fill-rule:evenodd;clip-rule:evenodd;stroke-linejoin:round;stroke-miterlimit:2;">
  <g style="" transform="matrix(0.656074, 0, 0, 0.890393, 86.936218, 21.926445)">
    <path d="M 247.463 222.929 L 166.482 184.533 C 157.789 180.408 145.736 181.777 139.566 187.59 L 138.768 188.341 C 132.602 194.153 134.647 202.207 143.344 206.331 L 224.323 244.729 C 233.02 248.852 245.069 247.483 251.241 241.672 L 252.037 240.919 C 258.209 235.106 256.158 227.052 247.463 222.929 Z" fill="#F39A2B" style=""/>
    <path d="M 242.526 207.92 L 241.402 207.388 C 232.705 203.264 220.654 204.634 214.485 210.446 L 122.724 296.892 C 116.554 302.703 118.603 310.759 127.299 314.881 L 128.423 315.415 C 137.12 319.539 149.171 318.17 155.339 312.358 L 247.101 225.911 C 253.273 220.098 251.223 212.045 242.526 207.92 Z" fill="#E5594F" style=""/>
    <path d="M 362.54 234.536 C 362.397 247.645 359.367 258.544 351.774 271.822 C 346.595 280.881 334.46 293.321 324.166 300.89 C 299.508 319.023 264.48 330.53 229.919 332.707 C 190.473 335.193 155.694 328.135 123.728 312.157 C 126.722 313.654 120.778 310.48 120.963 310.585 C 119.178 309.585 117.453 308.539 115.73 307.491 C 112.284 305.398 109.035 303.165 105.856 300.892 C 98.753 295.808 95.605 292.906 89.636 286.538 C 79.024 275.219 73.702 265.534 69.67 251.864 C 68.098 246.539 67.558 241.451 67.483 234.536 C 67.275 215.351 22.746 215.338 22.954 234.536 C 23.583 292.743 83.273 344.455 167.822 358.993 C 252.561 373.564 343.592 346.106 384.643 294.754 C 399.421 276.268 406.843 255.453 407.069 234.535 C 407.275 215.338 362.746 215.351 362.54 234.536 Z" fill="#4A5699" style=""/>
    <path d="M 67.483 228.346 C 67.625 215.238 70.655 204.339 78.248 191.06 C 83.428 182.003 95.562 169.562 105.856 161.992 C 130.514 143.86 165.54 132.354 200.102 130.174 C 239.548 127.689 274.328 134.748 306.295 150.726 C 303.3 149.229 309.244 152.403 309.057 152.298 C 310.844 153.298 312.568 154.345 314.291 155.392 C 317.737 157.485 320.988 159.718 324.167 161.991 C 331.27 167.074 334.417 169.977 340.387 176.345 C 350.999 187.664 356.322 197.348 360.354 211.018 C 361.925 216.343 362.466 221.432 362.54 228.346 C 362.747 247.531 407.277 247.545 407.07 228.346 C 406.441 170.138 346.747 118.428 262.2 103.89 C 177.46 89.317 86.431 116.777 45.381 168.128 C 30.603 186.615 23.181 207.428 22.955 228.346 C 22.746 247.545 67.275 247.531 67.483 228.346 Z" fill="#C45FA0" style=""/>
  </g>
</svg>